<?xml version="1.0" encoding="UTF-8"?>
<svg id="Capa_2" data-name="Capa 2" xmlns="http://www.w3.org/2000/svg" viewBox="0 0 747 287.47">
  <defs>
    <style>
      .cls-1 {
        fill: #101820;
      }
    </style>
  </defs>
  <g id="Capa_1-2" data-name="Capa 1">
    <g>
      <path class="cls-1" d="M667.69,125.44c-12.42-4.18-19.5-16.96-16.87-29.48-10.4-4.04-20.16-8.21-29.27-12.38-9.64,29.72,6.4,61.73,36.09,71.72,29.7,9.99,61.86-5.83,72.12-35.37-9.79-2.18-20.08-4.75-30.81-7.8-5.46,11.57-18.84,17.48-31.26,13.3Z"/>
      <g>
        <path class="cls-1" d="M689.4,63.09c1.62.55,3.27.8,4.89.8,6.4,0,12.38-4.04,14.53-10.45l4.48-13.3.68-2.03c-4.29-2.36-8.83-4.39-13.62-6-5.13-1.73-10.32-2.9-15.51-3.6l-.56,1.68-4.53,13.48c-2.7,8.03,1.62,16.72,9.64,19.42Z"/>
        <path class="cls-1" d="M741.95,96.04s2.37-27.88-20.52-47.52l-3.44,10.23c-3.55,10.56-13.43,17.66-24.57,17.66-2.81,0-5.59-.46-8.27-1.36-6.56-2.21-11.87-6.84-14.95-13.04s-3.56-13.23-1.35-19.79l3.5-10.41c-29.66,1.83-44.92,25.71-44.92,25.71l-5.09-1.71-4.4,13.09c1.91.9,3.86,1.8,5.82,2.7,9.52,4.36,19.72,8.71,30.59,12.94,8.61,3.35,17.63,6.62,27.07,9.75,7.93,2.63,15.68,5,23.23,7.15,11.21,3.19,21.96,5.88,32.2,8.15,1.93.43,3.86.85,5.75,1.25,1.47-4.36,2.94-8.73,4.4-13.09l-5.06-1.7Z"/>
      </g>
      <g>
        <polygon class="cls-1" points="493.55 187.59 0 187.59 0 221.73 476.49 221.73 510.62 221.73 511.85 221.73 528.92 187.59 527.69 187.59 493.55 187.59"/>
        <polygon class="cls-1" points="544.61 221.73 578.75 221.73 595.82 187.59 561.68 187.59 544.61 221.73"/>
        <polygon class="cls-1" points="612.74 221.73 646.87 221.73 663.94 187.59 629.81 187.59 612.74 221.73"/>
        <polygon class="cls-1" points="697.93 187.59 680.87 221.73 715 221.73 732.07 187.59 697.93 187.59"/>
      </g>
      <rect class="cls-1" x="349.12" y="0" width="33.58" height="33.58" rx="16.79" ry="16.79"/>
      <path class="cls-1" d="M172.96,52.79c-4.54,2.63-7.71,6.52-9.51,11.68l-2.12-14.67h-30.77v108.51h33.58v-50.73c0-9.16,2.6-16.26,7.81-21.31,5.21-5.05,12.62-7.58,22.25-7.58,2.27,0,3.95.08,5.05.24v-29.12c-3.21-.63-6.58-.94-10.1-.94-6.26,0-11.67,1.31-16.21,3.94Z"/>
      <path class="cls-1" d="M471.55,46.04c-7.05,0-13.57,1.41-19.55,4.22-5.99,2.82-10.67,6.62-14.03,11.39l-2.23-11.86h-27.83v108.51h33.35v-60.36c0-6.73,1.64-11.97,4.93-15.74,3.29-3.75,8.14-5.63,14.56-5.63,12.21,0,18.32,7.44,18.32,22.31v59.42h33.7v-67.29c0-13.69-3.62-24.62-10.86-32.77-7.24-8.14-17.36-12.2-30.36-12.2Z"/>
      <polygon class="cls-1" points="579.86 21.73 546.28 21.73 546.28 49.79 526.31 49.79 526.31 77.5 546.28 77.5 546.28 158.3 579.86 158.3 579.86 77.5 600.3 77.5 600.3 49.79 579.86 49.79 579.86 21.73"/>
      <path class="cls-1" d="M270.27,46.4c-30.9,0-55.95,25.05-55.95,55.95s25.05,55.95,55.95,55.95,55.95-25.05,55.95-55.95-25.05-55.95-55.95-55.95ZM270.27,127.42c-13.85,0-25.07-11.22-25.07-25.07s11.22-25.07,25.07-25.07,25.07,11.22,25.07,25.07-11.22,25.07-25.07,25.07Z"/>
      <rect class="cls-1" x="349.12" y="49.79" width="33.58" height="108.51"/>
      <path class="cls-1" d="M64.57,6.09H0v152.21h34.66v-50.31h29.21c11.28,0,21-2.14,29.16-6.43s14.36-10.26,18.61-17.91c4.25-7.65,6.38-16.46,6.38-26.43,0-15.69-4.75-28.13-14.26-37.33s-22.57-13.79-39.18-13.79ZM75.64,71.88c-3.9,4.29-9.95,6.43-18.14,6.43h-22.84v-42.08h23.07c8.04,0,14.01,2.05,17.91,6.14,3.9,4.1,5.85,8.77,5.85,14.03,0,6.03-1.95,11.19-5.85,15.48Z"/>
      <g>
        <polygon class="cls-1" points="0 264.49 8.49 264.49 8.49 286.89 14.92 286.89 14.92 264.49 23.33 264.49 23.33 258.66 0 258.66 0 264.49"/>
        <path class="cls-1" d="M48.94,259.91c-2.3-1.23-4.9-1.84-7.82-1.84s-5.55.61-7.86,1.86c-2.3,1.25-4.1,2.98-5.39,5.21-1.29,2.25-1.93,4.79-1.93,7.67s.64,5.42,1.93,7.63c1.29,2.23,3.09,3.95,5.39,5.19,2.31,1.23,4.9,1.84,7.82,1.84s5.56-.61,7.86-1.84c2.3-1.25,4.11-2.97,5.42-5.21,1.31-2.23,1.97-4.79,1.97-7.65s-.66-5.44-1.97-7.67c-1.32-2.23-3.12-3.97-5.42-5.19ZM48.43,277.29c-.7,1.32-1.68,2.35-2.97,3.09-1.27.72-2.72,1.09-4.34,1.09s-3.11-.35-4.39-1.07c-1.27-.72-2.26-1.74-2.97-3.05-.7-1.32-1.05-2.82-1.05-4.54s.36-3.26,1.07-4.58c.72-1.33,1.72-2.35,2.99-3.09,1.27-.74,2.74-1.11,4.39-1.11s3.06.37,4.33,1.11c1.25.74,2.24,1.75,2.94,3.09.7,1.32,1.05,2.84,1.05,4.54s-.35,3.19-1.05,4.53Z"/>
        <path class="cls-1" d="M80.61,260.49c-2.16-1.21-4.6-1.82-7.32-1.82h-11.5v28.23h11.5c2.75,0,5.2-.6,7.36-1.79,2.16-1.19,3.84-2.84,5.04-4.97,1.2-2.14,1.81-4.54,1.81-7.25s-.61-5.18-1.83-7.33c-1.21-2.16-2.9-3.84-5.06-5.07ZM78.55,278.82c-1.46,1.51-3.41,2.26-5.88,2.26h-4.46v-16.6h4.46c2.47,0,4.42.77,5.88,2.32s2.18,3.56,2.18,6.09-.73,4.42-2.18,5.93Z"/>
        <path class="cls-1" d="M114.35,259.91c-2.3-1.23-4.9-1.84-7.82-1.84s-5.55.61-7.86,1.86c-2.3,1.25-4.1,2.98-5.39,5.21-1.29,2.25-1.93,4.79-1.93,7.67s.64,5.42,1.93,7.63c1.29,2.23,3.09,3.95,5.39,5.19,2.31,1.23,4.9,1.84,7.82,1.84s5.56-.61,7.86-1.84c2.3-1.25,4.11-2.97,5.42-5.21,1.31-2.23,1.97-4.79,1.97-7.65s-.66-5.44-1.97-7.67c-1.32-2.23-3.12-3.97-5.42-5.19ZM113.85,277.29c-.7,1.32-1.68,2.35-2.97,3.09-1.27.72-2.72,1.09-4.34,1.09s-3.11-.35-4.39-1.07-2.26-1.74-2.97-3.05c-.7-1.32-1.05-2.82-1.05-4.54s.36-3.26,1.07-4.58c.72-1.33,1.72-2.35,2.99-3.09,1.27-.74,2.74-1.11,4.39-1.11s3.06.37,4.32,1.11c1.25.74,2.24,1.75,2.94,3.09.7,1.32,1.05,2.84,1.05,4.54s-.35,3.19-1.05,4.53Z"/>
        <polygon class="cls-1" points="133.15 286.89 151.79 286.89 151.79 281.08 139.58 281.08 139.58 275.45 150.46 275.45 150.46 269.84 139.58 269.84 139.58 264.49 151.79 264.49 151.79 258.66 133.15 258.66 133.15 286.89"/>
        <polygon class="cls-1" points="175.76 275.8 164.23 258.66 158.24 258.66 158.24 286.89 164.58 286.89 164.58 269.8 176.17 286.89 182.14 286.89 182.14 258.66 175.76 258.66 175.76 275.8"/>
        <path class="cls-1" d="M210.61,258.66h-11.97v28.23h6.42v-9.33h5.42c2.1,0,3.9-.4,5.4-1.19,1.52-.79,2.67-1.89,3.46-3.32s1.18-3.05,1.18-4.91c0-2.9-.89-5.21-2.65-6.91-1.76-1.7-4.18-2.56-7.26-2.56ZM212.66,270.85c-.73.81-1.85,1.19-3.37,1.19h-4.24v-7.79h4.28c1.49,0,2.6.37,3.32,1.14.72.75,1.09,1.61,1.09,2.6,0,1.12-.37,2.07-1.09,2.86Z"/>
        <path class="cls-1" d="M246.56,272.78c.82-1.39,1.24-3.04,1.24-4.97,0-3-.94-5.26-2.8-6.83-1.87-1.56-4.66-2.33-8.39-2.33h-11.37v28.23h6.42v-9.86h4.86l4.34,9.86h7.23l-5.14-10.97c1.58-.74,2.78-1.77,3.61-3.14ZM239.9,270.49c-.73.68-1.84,1.04-3.33,1.04h-4.9v-7.26h4.95c1.52,0,2.63.33,3.33,1.02.7.7,1.05,1.56,1.05,2.58,0,1.07-.37,1.95-1.1,2.63Z"/>
        <path class="cls-1" d="M274.69,259.91c-2.3-1.23-4.9-1.84-7.82-1.84s-5.55.61-7.86,1.86c-2.3,1.25-4.1,2.98-5.39,5.21-1.29,2.25-1.93,4.79-1.93,7.67s.64,5.42,1.93,7.63c1.29,2.23,3.09,3.95,5.39,5.19,2.31,1.23,4.9,1.84,7.82,1.84s5.56-.61,7.86-1.84c2.3-1.25,4.11-2.97,5.42-5.21,1.31-2.23,1.97-4.79,1.97-7.65s-.66-5.44-1.97-7.67c-1.32-2.23-3.12-3.97-5.42-5.19ZM274.18,277.29c-.7,1.32-1.68,2.35-2.97,3.09-1.27.72-2.72,1.09-4.34,1.09s-3.11-.35-4.39-1.07c-1.27-.72-2.26-1.74-2.97-3.05s-1.05-2.82-1.05-4.54.36-3.26,1.07-4.58c.72-1.33,1.72-2.35,2.99-3.09,1.27-.74,2.74-1.11,4.39-1.11s3.06.37,4.32,1.11c1.25.74,2.24,1.75,2.94,3.09.7,1.32,1.05,2.84,1.05,4.54s-.35,3.19-1.05,4.53Z"/>
        <polygon class="cls-1" points="284.68 264.49 293.17 264.49 293.17 286.89 299.6 286.89 299.6 264.49 308.01 264.49 308.01 258.66 284.68 258.66 284.68 264.49"/>
        <polygon class="cls-1" points="312.34 286.89 330.97 286.89 330.97 281.08 318.76 281.08 318.76 275.45 329.65 275.45 329.65 269.84 318.76 269.84 318.76 264.49 330.97 264.49 330.97 258.66 312.34 258.66 312.34 286.89"/>
        <path class="cls-1" d="M350.18,264.03c1.82,0,3.37.44,4.66,1.28,1.28.86,2.09,1.97,2.41,3.35h7.14c-.29-2.14-1.09-4-2.4-5.61-1.32-1.6-2.99-2.84-5.03-3.7-2.04-.86-4.26-1.28-6.7-1.28-2.94,0-5.54.6-7.77,1.82-2.25,1.21-3.99,2.95-5.24,5.18-1.25,2.23-1.87,4.77-1.87,7.65s.63,5.51,1.89,7.76c1.26,2.23,3.03,3.95,5.28,5.18,2.25,1.21,4.83,1.82,7.71,1.82,2.52,0,4.81-.44,6.87-1.35,2.05-.89,3.71-2.14,4.97-3.77,1.26-1.61,2.03-3.46,2.28-5.54h-7.14c-.37,1.4-1.2,2.54-2.49,3.42-1.29.86-2.82,1.3-4.58,1.3-2.41,0-4.35-.79-5.82-2.33-1.47-1.56-2.2-3.68-2.2-6.39s.72-4.81,2.16-6.39,3.4-2.39,5.86-2.39Z"/>
        <path class="cls-1" d="M382.86,264.03c1.82,0,3.37.44,4.66,1.28,1.28.86,2.09,1.97,2.41,3.35h7.14c-.29-2.14-1.09-4-2.4-5.61-1.32-1.6-2.99-2.84-5.03-3.7-2.04-.86-4.26-1.28-6.7-1.28-2.94,0-5.54.6-7.77,1.82-2.25,1.21-3.99,2.95-5.24,5.18-1.25,2.23-1.87,4.77-1.87,7.65s.63,5.51,1.89,7.76c1.26,2.23,3.03,3.95,5.28,5.18,2.25,1.21,4.82,1.82,7.71,1.82,2.52,0,4.81-.44,6.87-1.35,2.05-.89,3.71-2.14,4.97-3.77,1.26-1.61,2.03-3.46,2.28-5.54h-7.14c-.37,1.4-1.2,2.54-2.49,3.42-1.29.86-2.82,1.3-4.58,1.3-2.41,0-4.35-.79-5.82-2.33-1.47-1.56-2.2-3.68-2.2-6.39s.72-4.81,2.16-6.39c1.44-1.58,3.4-2.39,5.86-2.39Z"/>
        <rect class="cls-1" x="402.52" y="258.66" width="6.42" height="28.23"/>
        <polygon class="cls-1" points="437.64 250.05 434.69 247.05 427.64 254.57 429.4 256.43 437.64 250.05"/>
        <path class="cls-1" d="M437.22,259.91c-2.3-1.23-4.9-1.84-7.82-1.84s-5.55.61-7.86,1.86c-2.3,1.25-4.1,2.98-5.39,5.21-1.29,2.25-1.93,4.79-1.93,7.67s.64,5.42,1.93,7.63c1.29,2.23,3.09,3.95,5.39,5.19,2.31,1.23,4.9,1.84,7.82,1.84s5.56-.61,7.86-1.84c2.3-1.25,4.11-2.97,5.42-5.21,1.31-2.23,1.97-4.79,1.97-7.65s-.66-5.44-1.97-7.67c-1.32-2.23-3.12-3.97-5.42-5.19ZM436.71,277.29c-.7,1.32-1.68,2.35-2.97,3.09-1.27.72-2.72,1.09-4.34,1.09s-3.11-.35-4.39-1.07c-1.27-.72-2.26-1.74-2.97-3.05-.7-1.32-1.05-2.82-1.05-4.54s.36-3.26,1.07-4.58c.72-1.33,1.72-2.35,2.99-3.09,1.27-.74,2.74-1.11,4.39-1.11s3.06.37,4.33,1.11c1.25.74,2.24,1.75,2.94,3.09.7,1.32,1.05,2.84,1.05,4.54s-.35,3.19-1.05,4.53Z"/>
        <polygon class="cls-1" points="467.59 275.8 456.06 258.66 450.07 258.66 450.07 286.89 456.42 286.89 456.42 269.8 468 286.89 473.98 286.89 473.98 258.66 467.59 258.66 467.59 275.8"/>
        <rect class="cls-1" x="490.47" y="258.66" width="6.42" height="28.23"/>
        <polygon class="cls-1" points="521.26 275.8 509.74 258.66 503.75 258.66 503.75 286.89 510.09 286.89 510.09 269.8 521.68 286.89 527.65 286.89 527.65 258.66 521.26 258.66 521.26 275.8"/>
        <path class="cls-1" d="M553.51,260.49c-2.16-1.21-4.6-1.82-7.32-1.82h-11.5v28.23h11.5c2.75,0,5.2-.6,7.36-1.79,2.16-1.19,3.84-2.84,5.04-4.97,1.2-2.14,1.81-4.54,1.81-7.25s-.61-5.18-1.83-7.33c-1.21-2.16-2.9-3.84-5.06-5.07ZM551.45,278.82c-1.46,1.51-3.41,2.26-5.88,2.26h-4.46v-16.6h4.46c2.47,0,4.42.77,5.88,2.32s2.18,3.56,2.18,6.09-.73,4.42-2.18,5.93Z"/>
        <path class="cls-1" d="M583.87,276.1c0,1.75-.51,3.14-1.54,4.12-1.04.97-2.5,1.46-4.4,1.46-1.75,0-3.16-.46-4.22-1.39-1.06-.91-1.61-2.32-1.63-4.19v-17.44h-6.43v17.72c0,3.42,1.1,6.12,3.3,8.11,2.2,2,5.19,2.98,8.98,2.98s6.77-.97,9.02-2.9c2.24-1.95,3.36-4.67,3.36-8.19v-17.72h-6.43v17.44Z"/>
        <path class="cls-1" d="M610.62,270.03l-4.45-1c-1.12-.28-1.97-.61-2.53-1.02-.57-.4-.85-1-.85-1.79,0-.84.32-1.51.99-2.02.66-.49,1.53-.75,2.62-.75,1.23,0,2.25.3,3.05.91.8.6,1.21,1.39,1.25,2.37h6.64c-.03-1.72-.48-3.23-1.38-4.54-.89-1.32-2.13-2.33-3.74-3.05-1.61-.72-3.44-1.07-5.48-1.07s-3.97.37-5.56,1.09c-1.58.74-2.82,1.77-3.69,3.12-.89,1.35-1.32,2.93-1.32,4.75,0,2,.61,3.7,1.84,5.11,1.22,1.4,3.15,2.42,5.79,3.04l4.67,1.11c.9.21,1.61.53,2.11.95.5.42.75,1.02.75,1.77,0,.95-.39,1.7-1.15,2.25-.77.54-1.82.81-3.18.81-1.46,0-2.64-.32-3.54-.95s-1.39-1.51-1.47-2.67h-6.6c.2,2.79,1.33,4.98,3.4,6.61,2.07,1.61,4.78,2.42,8.11,2.42,2.24,0,4.2-.37,5.89-1.12,1.68-.75,2.98-1.82,3.91-3.19.92-1.39,1.39-3,1.39-4.84,0-2.07-.62-3.81-1.87-5.25-1.25-1.44-3.12-2.44-5.61-3.04Z"/>
        <polygon class="cls-1" points="621.13 264.49 629.62 264.49 629.62 286.89 636.05 286.89 636.05 264.49 644.45 264.49 644.45 258.66 621.13 258.66 621.13 264.49"/>
        <path class="cls-1" d="M670.11,272.78c.82-1.39,1.24-3.04,1.24-4.97,0-3-.94-5.26-2.8-6.83-1.87-1.56-4.66-2.33-8.39-2.33h-11.37v28.23h6.42v-9.86h4.86l4.34,9.86h7.23l-5.14-10.97c1.58-.74,2.78-1.77,3.61-3.14ZM663.45,270.49c-.73.68-1.84,1.04-3.33,1.04h-4.9v-7.26h4.95c1.52,0,2.63.33,3.33,1.02.7.7,1.05,1.56,1.05,2.58,0,1.07-.37,1.95-1.1,2.63Z"/>
        <rect class="cls-1" x="677.15" y="258.66" width="6.42" height="28.23"/>
        <path class="cls-1" d="M698.04,258.66l-10.54,28.23h6.71l2.11-5.81h9.5l2.09,5.81h6.82l-10.47-28.23h-6.21ZM698.17,275.71l1.14-3.05c.41-1.09.81-2.14,1.17-3.18.37-1.04.6-1.75.68-2.14l.58,1.77c.5,1.56.88,2.75,1.14,3.54l1.1,3.05h-5.81Z"/>
        <polygon class="cls-1" points="725.37 281.08 725.37 258.66 718.86 258.66 718.86 286.89 736.92 286.89 736.92 281.08 725.37 281.08"/>
      </g>
    </g>
  </g>
</svg>